<mxfile host="app.diagrams.net" agent="Mozilla/5.0 (Windows NT 10.0; Win64; x64) AppleWebKit/537.36 (KHTML, like Gecko) Chrome/132.0.0.0 Safari/537.36 OPR/117.0.0.0" version="26.2.12">
  <diagram name="Page-1" id="6pKnszKHuzy9kLr5Nu0_">
    <mxGraphModel dx="2993" dy="1133" grid="1" gridSize="10" guides="1" tooltips="1" connect="1" arrows="1" fold="1" page="1" pageScale="1" pageWidth="850" pageHeight="1100" math="0" shadow="0">
      <root>
        <mxCell id="0" />
        <mxCell id="1" parent="0" />
        <mxCell id="xkhYk-mLTDHi5yK7-aAF-93" value="" style="rounded=0;whiteSpace=wrap;html=1;movable=0;resizable=0;rotatable=0;deletable=0;editable=0;locked=1;connectable=0;" vertex="1" parent="1">
          <mxGeometry x="-160" y="20" width="1520" height="1420" as="geometry" />
        </mxCell>
        <mxCell id="xkhYk-mLTDHi5yK7-aAF-1" value="" style="ellipse;whiteSpace=wrap;html=1;aspect=fixed;fillColor=light-dark(#FFFFFF,#000000);" vertex="1" parent="1">
          <mxGeometry x="580" y="30" width="40" height="40" as="geometry" />
        </mxCell>
        <mxCell id="xkhYk-mLTDHi5yK7-aAF-2" value="" style="endArrow=classic;html=1;rounded=0;exitX=0.5;exitY=1;exitDx=0;exitDy=0;" edge="1" parent="1" source="xkhYk-mLTDHi5yK7-aAF-1" target="xkhYk-mLTDHi5yK7-aAF-3">
          <mxGeometry width="50" height="50" relative="1" as="geometry">
            <mxPoint x="640" y="70" as="sourcePoint" />
            <mxPoint x="630" y="120" as="targetPoint" />
          </mxGeometry>
        </mxCell>
        <mxCell id="xkhYk-mLTDHi5yK7-aAF-3" value="App start" style="ellipse;whiteSpace=wrap;html=1;" vertex="1" parent="1">
          <mxGeometry x="550" y="120" width="100" height="60" as="geometry" />
        </mxCell>
        <mxCell id="xkhYk-mLTDHi5yK7-aAF-4" value="" style="endArrow=classic;html=1;rounded=0;exitX=0.5;exitY=1;exitDx=0;exitDy=0;" edge="1" parent="1" source="xkhYk-mLTDHi5yK7-aAF-3" target="xkhYk-mLTDHi5yK7-aAF-5">
          <mxGeometry width="50" height="50" relative="1" as="geometry">
            <mxPoint x="660" y="360" as="sourcePoint" />
            <mxPoint x="630" y="260" as="targetPoint" />
          </mxGeometry>
        </mxCell>
        <mxCell id="xkhYk-mLTDHi5yK7-aAF-5" value="User Login" style="ellipse;whiteSpace=wrap;html=1;" vertex="1" parent="1">
          <mxGeometry x="550" y="260" width="100" height="60" as="geometry" />
        </mxCell>
        <mxCell id="xkhYk-mLTDHi5yK7-aAF-6" value="" style="endArrow=classic;html=1;rounded=0;exitX=1;exitY=0.5;exitDx=0;exitDy=0;entryX=0.5;entryY=0;entryDx=0;entryDy=0;" edge="1" parent="1" source="xkhYk-mLTDHi5yK7-aAF-11" target="xkhYk-mLTDHi5yK7-aAF-51">
          <mxGeometry width="50" height="50" relative="1" as="geometry">
            <mxPoint x="980" y="400" as="sourcePoint" />
            <mxPoint x="1080" y="460" as="targetPoint" />
            <Array as="points">
              <mxPoint x="940" y="400" />
            </Array>
          </mxGeometry>
        </mxCell>
        <mxCell id="xkhYk-mLTDHi5yK7-aAF-7" value="" style="endArrow=classic;html=1;rounded=0;exitX=0;exitY=0.5;exitDx=0;exitDy=0;entryX=0.5;entryY=0;entryDx=0;entryDy=0;" edge="1" parent="1" source="xkhYk-mLTDHi5yK7-aAF-11" target="xkhYk-mLTDHi5yK7-aAF-48">
          <mxGeometry width="50" height="50" relative="1" as="geometry">
            <mxPoint x="380" y="400" as="sourcePoint" />
            <mxPoint x="267.55389574600486" y="440.4498388254842" as="targetPoint" />
            <Array as="points">
              <mxPoint x="250" y="400" />
            </Array>
          </mxGeometry>
        </mxCell>
        <mxCell id="xkhYk-mLTDHi5yK7-aAF-9" value="Doctor" style="text;html=1;align=center;verticalAlign=middle;whiteSpace=wrap;rounded=0;" vertex="1" parent="1">
          <mxGeometry x="250" y="370" width="60" height="30" as="geometry" />
        </mxCell>
        <mxCell id="xkhYk-mLTDHi5yK7-aAF-10" value="Patient" style="text;html=1;align=center;verticalAlign=middle;whiteSpace=wrap;rounded=0;" vertex="1" parent="1">
          <mxGeometry x="880" y="370" width="60" height="30" as="geometry" />
        </mxCell>
        <mxCell id="xkhYk-mLTDHi5yK7-aAF-11" value="" style="rhombus;whiteSpace=wrap;html=1;fillColor=light-dark(#FFFFFF,#000000);" vertex="1" parent="1">
          <mxGeometry x="580" y="380" width="40" height="40" as="geometry" />
        </mxCell>
        <mxCell id="xkhYk-mLTDHi5yK7-aAF-12" value="" style="endArrow=classic;html=1;rounded=0;exitX=0.5;exitY=1;exitDx=0;exitDy=0;entryX=0.5;entryY=0;entryDx=0;entryDy=0;" edge="1" parent="1" source="xkhYk-mLTDHi5yK7-aAF-5" target="xkhYk-mLTDHi5yK7-aAF-11">
          <mxGeometry width="50" height="50" relative="1" as="geometry">
            <mxPoint x="660" y="460" as="sourcePoint" />
            <mxPoint x="710" y="410" as="targetPoint" />
          </mxGeometry>
        </mxCell>
        <mxCell id="xkhYk-mLTDHi5yK7-aAF-14" value="" style="endArrow=classic;html=1;rounded=0;exitX=0;exitY=0.5;exitDx=0;exitDy=0;entryX=0.5;entryY=0;entryDx=0;entryDy=0;" edge="1" parent="1" source="xkhYk-mLTDHi5yK7-aAF-15" target="xkhYk-mLTDHi5yK7-aAF-21">
          <mxGeometry width="50" height="50" relative="1" as="geometry">
            <mxPoint x="230" y="580" as="sourcePoint" />
            <mxPoint x="130" y="640" as="targetPoint" />
            <Array as="points">
              <mxPoint x="130" y="580" />
            </Array>
          </mxGeometry>
        </mxCell>
        <mxCell id="xkhYk-mLTDHi5yK7-aAF-15" value="" style="rhombus;whiteSpace=wrap;html=1;fillColor=light-dark(#FFFFFF,#000000);" vertex="1" parent="1">
          <mxGeometry x="230" y="560" width="40" height="40" as="geometry" />
        </mxCell>
        <mxCell id="xkhYk-mLTDHi5yK7-aAF-16" value="" style="endArrow=classic;html=1;rounded=0;exitX=1;exitY=0.5;exitDx=0;exitDy=0;entryX=0.5;entryY=0;entryDx=0;entryDy=0;" edge="1" parent="1" source="xkhYk-mLTDHi5yK7-aAF-15" target="xkhYk-mLTDHi5yK7-aAF-20">
          <mxGeometry width="50" height="50" relative="1" as="geometry">
            <mxPoint x="270" y="580" as="sourcePoint" />
            <mxPoint x="370" y="660" as="targetPoint" />
            <Array as="points">
              <mxPoint x="410" y="580" />
            </Array>
          </mxGeometry>
        </mxCell>
        <mxCell id="xkhYk-mLTDHi5yK7-aAF-17" value="" style="endArrow=classic;html=1;rounded=0;exitX=0.5;exitY=1;exitDx=0;exitDy=0;entryX=0.5;entryY=0;entryDx=0;entryDy=0;" edge="1" parent="1" source="xkhYk-mLTDHi5yK7-aAF-15" target="xkhYk-mLTDHi5yK7-aAF-18">
          <mxGeometry width="50" height="50" relative="1" as="geometry">
            <mxPoint x="250" y="600" as="sourcePoint" />
            <mxPoint x="250" y="660" as="targetPoint" />
          </mxGeometry>
        </mxCell>
        <mxCell id="xkhYk-mLTDHi5yK7-aAF-18" value="Manage Availability" style="ellipse;whiteSpace=wrap;html=1;" vertex="1" parent="1">
          <mxGeometry x="200" y="700" width="100" height="60" as="geometry" />
        </mxCell>
        <mxCell id="xkhYk-mLTDHi5yK7-aAF-20" value="View Profile" style="ellipse;whiteSpace=wrap;html=1;" vertex="1" parent="1">
          <mxGeometry x="360" y="700" width="100" height="60" as="geometry" />
        </mxCell>
        <mxCell id="xkhYk-mLTDHi5yK7-aAF-21" value="View Appointments" style="ellipse;whiteSpace=wrap;html=1;" vertex="1" parent="1">
          <mxGeometry x="80" y="700" width="100" height="60" as="geometry" />
        </mxCell>
        <mxCell id="xkhYk-mLTDHi5yK7-aAF-22" value="" style="endArrow=classic;html=1;rounded=0;exitX=0.5;exitY=1;exitDx=0;exitDy=0;" edge="1" parent="1" source="xkhYk-mLTDHi5yK7-aAF-18" target="xkhYk-mLTDHi5yK7-aAF-23">
          <mxGeometry width="50" height="50" relative="1" as="geometry">
            <mxPoint x="390" y="800" as="sourcePoint" />
            <mxPoint x="130" y="820" as="targetPoint" />
          </mxGeometry>
        </mxCell>
        <mxCell id="xkhYk-mLTDHi5yK7-aAF-23" value="Set/Modify Available Timeslots" style="ellipse;whiteSpace=wrap;html=1;" vertex="1" parent="1">
          <mxGeometry x="200" y="810" width="100" height="60" as="geometry" />
        </mxCell>
        <mxCell id="xkhYk-mLTDHi5yK7-aAF-24" value="" style="endArrow=classic;html=1;rounded=0;exitX=0.5;exitY=1;exitDx=0;exitDy=0;entryX=0.5;entryY=0;entryDx=0;entryDy=0;" edge="1" parent="1" source="xkhYk-mLTDHi5yK7-aAF-21" target="xkhYk-mLTDHi5yK7-aAF-26">
          <mxGeometry width="50" height="50" relative="1" as="geometry">
            <mxPoint x="150" y="880" as="sourcePoint" />
            <mxPoint x="130" y="820" as="targetPoint" />
          </mxGeometry>
        </mxCell>
        <mxCell id="xkhYk-mLTDHi5yK7-aAF-26" value="" style="rhombus;whiteSpace=wrap;html=1;" vertex="1" parent="1">
          <mxGeometry x="110" y="820" width="40" height="40" as="geometry" />
        </mxCell>
        <mxCell id="xkhYk-mLTDHi5yK7-aAF-27" value="" style="endArrow=classic;html=1;rounded=0;exitX=0;exitY=0.5;exitDx=0;exitDy=0;entryX=1;entryY=0.5;entryDx=0;entryDy=0;" edge="1" parent="1" source="xkhYk-mLTDHi5yK7-aAF-26" target="xkhYk-mLTDHi5yK7-aAF-28">
          <mxGeometry width="50" height="50" relative="1" as="geometry">
            <mxPoint x="220" y="850" as="sourcePoint" />
            <mxPoint x="60" y="840" as="targetPoint" />
          </mxGeometry>
        </mxCell>
        <mxCell id="xkhYk-mLTDHi5yK7-aAF-28" value="Cancel Appointment" style="ellipse;whiteSpace=wrap;html=1;" vertex="1" parent="1">
          <mxGeometry x="-40" y="810" width="100" height="60" as="geometry" />
        </mxCell>
        <mxCell id="xkhYk-mLTDHi5yK7-aAF-29" value="" style="endArrow=classic;html=1;rounded=0;exitX=0.5;exitY=1;exitDx=0;exitDy=0;entryX=0.25;entryY=0;entryDx=0;entryDy=0;" edge="1" parent="1" source="xkhYk-mLTDHi5yK7-aAF-26" target="xkhYk-mLTDHi5yK7-aAF-40">
          <mxGeometry width="50" height="50" relative="1" as="geometry">
            <mxPoint x="220" y="810" as="sourcePoint" />
            <mxPoint x="130" y="980" as="targetPoint" />
          </mxGeometry>
        </mxCell>
        <mxCell id="xkhYk-mLTDHi5yK7-aAF-30" value="" style="endArrow=classic;html=1;rounded=0;exitX=0.5;exitY=1;exitDx=0;exitDy=0;entryX=0;entryY=0;entryDx=0;entryDy=0;" edge="1" parent="1" source="xkhYk-mLTDHi5yK7-aAF-28" target="xkhYk-mLTDHi5yK7-aAF-40">
          <mxGeometry width="50" height="50" relative="1" as="geometry">
            <mxPoint x="10" y="830" as="sourcePoint" />
            <mxPoint x="10" y="980" as="targetPoint" />
          </mxGeometry>
        </mxCell>
        <mxCell id="xkhYk-mLTDHi5yK7-aAF-31" value="" style="endArrow=classic;html=1;rounded=0;exitX=0.5;exitY=1;exitDx=0;exitDy=0;entryX=0.5;entryY=0;entryDx=0;entryDy=0;" edge="1" parent="1" source="xkhYk-mLTDHi5yK7-aAF-23" target="xkhYk-mLTDHi5yK7-aAF-40">
          <mxGeometry width="50" height="50" relative="1" as="geometry">
            <mxPoint x="220" y="810" as="sourcePoint" />
            <mxPoint x="250" y="980" as="targetPoint" />
          </mxGeometry>
        </mxCell>
        <mxCell id="xkhYk-mLTDHi5yK7-aAF-32" value="" style="endArrow=classic;html=1;rounded=0;exitX=0.5;exitY=1;exitDx=0;exitDy=0;entryX=0.5;entryY=0;entryDx=0;entryDy=0;" edge="1" parent="1" source="xkhYk-mLTDHi5yK7-aAF-20" target="xkhYk-mLTDHi5yK7-aAF-33">
          <mxGeometry width="50" height="50" relative="1" as="geometry">
            <mxPoint x="410" y="820" as="sourcePoint" />
            <mxPoint x="410" y="770" as="targetPoint" />
          </mxGeometry>
        </mxCell>
        <mxCell id="xkhYk-mLTDHi5yK7-aAF-33" value="" style="rhombus;whiteSpace=wrap;html=1;fillColor=light-dark(#FFFFFF,#000000);" vertex="1" parent="1">
          <mxGeometry x="390" y="820" width="40" height="40" as="geometry" />
        </mxCell>
        <mxCell id="xkhYk-mLTDHi5yK7-aAF-34" value="" style="endArrow=classic;html=1;rounded=0;exitX=1;exitY=0.5;exitDx=0;exitDy=0;entryX=0.5;entryY=0;entryDx=0;entryDy=0;" edge="1" parent="1" source="xkhYk-mLTDHi5yK7-aAF-33">
          <mxGeometry width="50" height="50" relative="1" as="geometry">
            <mxPoint x="360" y="820" as="sourcePoint" />
            <mxPoint x="490" y="900" as="targetPoint" />
            <Array as="points">
              <mxPoint x="490" y="840" />
            </Array>
          </mxGeometry>
        </mxCell>
        <mxCell id="xkhYk-mLTDHi5yK7-aAF-35" value="" style="endArrow=classic;html=1;rounded=0;exitX=0;exitY=0.5;exitDx=0;exitDy=0;entryX=0.5;entryY=0;entryDx=0;entryDy=0;" edge="1" parent="1" source="xkhYk-mLTDHi5yK7-aAF-33" target="xkhYk-mLTDHi5yK7-aAF-36">
          <mxGeometry width="50" height="50" relative="1" as="geometry">
            <mxPoint x="360" y="920" as="sourcePoint" />
            <mxPoint x="330" y="900" as="targetPoint" />
            <Array as="points">
              <mxPoint x="330" y="840" />
            </Array>
          </mxGeometry>
        </mxCell>
        <mxCell id="xkhYk-mLTDHi5yK7-aAF-36" value="Modify Profile Information" style="ellipse;whiteSpace=wrap;html=1;" vertex="1" parent="1">
          <mxGeometry x="280" y="900" width="100" height="60" as="geometry" />
        </mxCell>
        <mxCell id="xkhYk-mLTDHi5yK7-aAF-37" value="View Ratings" style="ellipse;whiteSpace=wrap;html=1;" vertex="1" parent="1">
          <mxGeometry x="440" y="900" width="100" height="60" as="geometry" />
        </mxCell>
        <mxCell id="xkhYk-mLTDHi5yK7-aAF-38" value="" style="endArrow=classic;html=1;rounded=0;exitX=0.5;exitY=1;exitDx=0;exitDy=0;entryX=0.667;entryY=0;entryDx=0;entryDy=0;entryPerimeter=0;" edge="1" parent="1" source="xkhYk-mLTDHi5yK7-aAF-36" target="xkhYk-mLTDHi5yK7-aAF-40">
          <mxGeometry width="50" height="50" relative="1" as="geometry">
            <mxPoint x="350" y="990" as="sourcePoint" />
            <mxPoint x="330" y="980" as="targetPoint" />
          </mxGeometry>
        </mxCell>
        <mxCell id="xkhYk-mLTDHi5yK7-aAF-39" value="" style="endArrow=classic;html=1;rounded=0;exitX=0.5;exitY=1;exitDx=0;exitDy=0;entryX=1;entryY=0;entryDx=0;entryDy=0;" edge="1" parent="1" source="xkhYk-mLTDHi5yK7-aAF-37" target="xkhYk-mLTDHi5yK7-aAF-40">
          <mxGeometry width="50" height="50" relative="1" as="geometry">
            <mxPoint x="360" y="980" as="sourcePoint" />
            <mxPoint x="490" y="980" as="targetPoint" />
          </mxGeometry>
        </mxCell>
        <mxCell id="xkhYk-mLTDHi5yK7-aAF-40" value="" style="rounded=0;whiteSpace=wrap;html=1;" vertex="1" parent="1">
          <mxGeometry x="10" y="1060" width="480" height="20" as="geometry" />
        </mxCell>
        <mxCell id="xkhYk-mLTDHi5yK7-aAF-41" value="" style="endArrow=classic;html=1;rounded=0;exitX=0.5;exitY=1;exitDx=0;exitDy=0;entryX=0.5;entryY=0;entryDx=0;entryDy=0;" edge="1" parent="1" source="xkhYk-mLTDHi5yK7-aAF-40">
          <mxGeometry width="50" height="50" relative="1" as="geometry">
            <mxPoint x="360" y="1080" as="sourcePoint" />
            <mxPoint x="250" y="1110" as="targetPoint" />
          </mxGeometry>
        </mxCell>
        <mxCell id="xkhYk-mLTDHi5yK7-aAF-42" value="" style="rhombus;whiteSpace=wrap;html=1;" vertex="1" parent="1">
          <mxGeometry x="230" y="1110" width="40" height="40" as="geometry" />
        </mxCell>
        <mxCell id="xkhYk-mLTDHi5yK7-aAF-43" value="" style="endArrow=classic;html=1;rounded=0;exitX=1;exitY=0.5;exitDx=0;exitDy=0;entryX=0.5;entryY=0;entryDx=0;entryDy=0;" edge="1" parent="1" source="xkhYk-mLTDHi5yK7-aAF-42" target="xkhYk-mLTDHi5yK7-aAF-91">
          <mxGeometry width="50" height="50" relative="1" as="geometry">
            <mxPoint x="390" y="1160" as="sourcePoint" />
            <mxPoint x="620" y="1260" as="targetPoint" />
            <Array as="points">
              <mxPoint x="600" y="1130" />
            </Array>
          </mxGeometry>
        </mxCell>
        <mxCell id="xkhYk-mLTDHi5yK7-aAF-44" value="" style="ellipse;whiteSpace=wrap;html=1;aspect=fixed;fillColor=light-dark(#FFFFFF,#FFFFFF);" vertex="1" parent="1">
          <mxGeometry x="580" y="1360" width="40" height="40" as="geometry" />
        </mxCell>
        <mxCell id="xkhYk-mLTDHi5yK7-aAF-45" value="" style="ellipse;whiteSpace=wrap;html=1;aspect=fixed;" vertex="1" parent="1">
          <mxGeometry x="585" y="1365" width="30" height="30" as="geometry" />
        </mxCell>
        <mxCell id="xkhYk-mLTDHi5yK7-aAF-48" value="View Overview Page/Calendar" style="ellipse;whiteSpace=wrap;html=1;strokeColor=default;align=center;verticalAlign=middle;fontFamily=Helvetica;fontSize=12;fontColor=default;fillColor=default;" vertex="1" parent="1">
          <mxGeometry x="200" y="460" width="100" height="60" as="geometry" />
        </mxCell>
        <mxCell id="xkhYk-mLTDHi5yK7-aAF-49" value="" style="endArrow=classic;html=1;rounded=0;exitX=0.5;exitY=1;exitDx=0;exitDy=0;entryX=0.5;entryY=0;entryDx=0;entryDy=0;" edge="1" parent="1" source="xkhYk-mLTDHi5yK7-aAF-48" target="xkhYk-mLTDHi5yK7-aAF-15">
          <mxGeometry width="50" height="50" relative="1" as="geometry">
            <mxPoint x="360" y="610" as="sourcePoint" />
            <mxPoint x="410" y="560" as="targetPoint" />
          </mxGeometry>
        </mxCell>
        <mxCell id="xkhYk-mLTDHi5yK7-aAF-50" value="" style="endArrow=classic;startArrow=classic;html=1;rounded=0;entryX=0;entryY=0.5;entryDx=0;entryDy=0;exitX=0;exitY=0.5;exitDx=0;exitDy=0;" edge="1" parent="1" source="xkhYk-mLTDHi5yK7-aAF-48" target="xkhYk-mLTDHi5yK7-aAF-42">
          <mxGeometry width="50" height="50" relative="1" as="geometry">
            <mxPoint x="-40" y="1080" as="sourcePoint" />
            <mxPoint x="230" y="1130" as="targetPoint" />
            <Array as="points">
              <mxPoint x="-70" y="490" />
              <mxPoint x="-70" y="1130" />
            </Array>
          </mxGeometry>
        </mxCell>
        <mxCell id="xkhYk-mLTDHi5yK7-aAF-51" value="View Overview Page/Calendar" style="ellipse;whiteSpace=wrap;html=1;strokeColor=default;align=center;verticalAlign=middle;fontFamily=Helvetica;fontSize=12;fontColor=default;fillColor=default;" vertex="1" parent="1">
          <mxGeometry x="890" y="460" width="100" height="60" as="geometry" />
        </mxCell>
        <mxCell id="xkhYk-mLTDHi5yK7-aAF-72" style="edgeStyle=orthogonalEdgeStyle;rounded=0;orthogonalLoop=1;jettySize=auto;html=1;exitX=0.5;exitY=1;exitDx=0;exitDy=0;entryX=0.5;entryY=0;entryDx=0;entryDy=0;" edge="1" parent="1" source="xkhYk-mLTDHi5yK7-aAF-52" target="xkhYk-mLTDHi5yK7-aAF-96">
          <mxGeometry relative="1" as="geometry" />
        </mxCell>
        <mxCell id="xkhYk-mLTDHi5yK7-aAF-52" value="View Appointment History" style="ellipse;whiteSpace=wrap;html=1;strokeColor=default;align=center;verticalAlign=middle;fontFamily=Helvetica;fontSize=12;fontColor=default;fillColor=default;" vertex="1" parent="1">
          <mxGeometry x="970" y="760" width="100" height="60" as="geometry" />
        </mxCell>
        <mxCell id="xkhYk-mLTDHi5yK7-aAF-70" style="edgeStyle=orthogonalEdgeStyle;rounded=0;orthogonalLoop=1;jettySize=auto;html=1;exitX=0.5;exitY=1;exitDx=0;exitDy=0;entryX=0.5;entryY=0;entryDx=0;entryDy=0;" edge="1" parent="1" source="xkhYk-mLTDHi5yK7-aAF-53" target="xkhYk-mLTDHi5yK7-aAF-60">
          <mxGeometry relative="1" as="geometry" />
        </mxCell>
        <mxCell id="xkhYk-mLTDHi5yK7-aAF-53" value="View Booked Appointments" style="ellipse;whiteSpace=wrap;html=1;strokeColor=default;align=center;verticalAlign=middle;fontFamily=Helvetica;fontSize=12;fontColor=default;fillColor=default;" vertex="1" parent="1">
          <mxGeometry x="660" y="640" width="100" height="60" as="geometry" />
        </mxCell>
        <mxCell id="xkhYk-mLTDHi5yK7-aAF-74" style="edgeStyle=orthogonalEdgeStyle;rounded=0;orthogonalLoop=1;jettySize=auto;html=1;exitX=0.5;exitY=1;exitDx=0;exitDy=0;entryX=0.5;entryY=0;entryDx=0;entryDy=0;" edge="1" parent="1" target="xkhYk-mLTDHi5yK7-aAF-55">
          <mxGeometry relative="1" as="geometry">
            <mxPoint x="870" y="700" as="sourcePoint" />
          </mxGeometry>
        </mxCell>
        <mxCell id="xkhYk-mLTDHi5yK7-aAF-54" value="Book new Appointment" style="ellipse;whiteSpace=wrap;html=1;strokeColor=default;align=center;verticalAlign=middle;fontFamily=Helvetica;fontSize=12;fontColor=default;fillColor=default;" vertex="1" parent="1">
          <mxGeometry x="820" y="640" width="100" height="60" as="geometry" />
        </mxCell>
        <mxCell id="xkhYk-mLTDHi5yK7-aAF-75" style="edgeStyle=orthogonalEdgeStyle;rounded=0;orthogonalLoop=1;jettySize=auto;html=1;exitX=0.5;exitY=1;exitDx=0;exitDy=0;entryX=0.5;entryY=0;entryDx=0;entryDy=0;" edge="1" parent="1" source="xkhYk-mLTDHi5yK7-aAF-55" target="xkhYk-mLTDHi5yK7-aAF-57">
          <mxGeometry relative="1" as="geometry" />
        </mxCell>
        <mxCell id="xkhYk-mLTDHi5yK7-aAF-55" value="Search for Doctors" style="ellipse;whiteSpace=wrap;html=1;strokeColor=default;align=center;verticalAlign=middle;fontFamily=Helvetica;fontSize=12;fontColor=default;fillColor=default;" vertex="1" parent="1">
          <mxGeometry x="820" y="720" width="100" height="60" as="geometry" />
        </mxCell>
        <mxCell id="xkhYk-mLTDHi5yK7-aAF-77" style="edgeStyle=orthogonalEdgeStyle;rounded=0;orthogonalLoop=1;jettySize=auto;html=1;exitX=0.5;exitY=1;exitDx=0;exitDy=0;entryX=0.5;entryY=0;entryDx=0;entryDy=0;" edge="1" parent="1" source="xkhYk-mLTDHi5yK7-aAF-56" target="xkhYk-mLTDHi5yK7-aAF-58">
          <mxGeometry relative="1" as="geometry" />
        </mxCell>
        <mxCell id="xkhYk-mLTDHi5yK7-aAF-56" value="Choose Date and Time" style="ellipse;whiteSpace=wrap;html=1;strokeColor=default;align=center;verticalAlign=middle;fontFamily=Helvetica;fontSize=12;fontColor=default;fillColor=default;" vertex="1" parent="1">
          <mxGeometry x="820" y="880" width="100" height="60" as="geometry" />
        </mxCell>
        <mxCell id="xkhYk-mLTDHi5yK7-aAF-76" style="edgeStyle=orthogonalEdgeStyle;rounded=0;orthogonalLoop=1;jettySize=auto;html=1;exitX=0.5;exitY=1;exitDx=0;exitDy=0;entryX=0.5;entryY=0;entryDx=0;entryDy=0;" edge="1" parent="1" source="xkhYk-mLTDHi5yK7-aAF-57" target="xkhYk-mLTDHi5yK7-aAF-56">
          <mxGeometry relative="1" as="geometry" />
        </mxCell>
        <mxCell id="xkhYk-mLTDHi5yK7-aAF-57" value="Select Doctor" style="ellipse;whiteSpace=wrap;html=1;strokeColor=default;align=center;verticalAlign=middle;fontFamily=Helvetica;fontSize=12;fontColor=default;fillColor=default;" vertex="1" parent="1">
          <mxGeometry x="820" y="800" width="100" height="60" as="geometry" />
        </mxCell>
        <mxCell id="xkhYk-mLTDHi5yK7-aAF-58" value="Booking Complete" style="ellipse;whiteSpace=wrap;html=1;strokeColor=default;align=center;verticalAlign=middle;fontFamily=Helvetica;fontSize=12;fontColor=default;fillColor=default;" vertex="1" parent="1">
          <mxGeometry x="820" y="960" width="100" height="60" as="geometry" />
        </mxCell>
        <mxCell id="xkhYk-mLTDHi5yK7-aAF-59" value="Cancel booking" style="ellipse;whiteSpace=wrap;html=1;strokeColor=default;align=center;verticalAlign=middle;fontFamily=Helvetica;fontSize=12;fontColor=default;fillColor=default;" vertex="1" parent="1">
          <mxGeometry x="550" y="750" width="100" height="60" as="geometry" />
        </mxCell>
        <mxCell id="xkhYk-mLTDHi5yK7-aAF-71" style="edgeStyle=orthogonalEdgeStyle;rounded=0;orthogonalLoop=1;jettySize=auto;html=1;exitX=0;exitY=0.5;exitDx=0;exitDy=0;entryX=1;entryY=0.5;entryDx=0;entryDy=0;" edge="1" parent="1" source="xkhYk-mLTDHi5yK7-aAF-60" target="xkhYk-mLTDHi5yK7-aAF-59">
          <mxGeometry relative="1" as="geometry" />
        </mxCell>
        <mxCell id="xkhYk-mLTDHi5yK7-aAF-80" style="edgeStyle=orthogonalEdgeStyle;rounded=0;orthogonalLoop=1;jettySize=auto;html=1;exitX=0.5;exitY=1;exitDx=0;exitDy=0;entryX=0.181;entryY=-0.113;entryDx=0;entryDy=0;entryPerimeter=0;" edge="1" parent="1" source="xkhYk-mLTDHi5yK7-aAF-60" target="xkhYk-mLTDHi5yK7-aAF-78">
          <mxGeometry relative="1" as="geometry">
            <mxPoint x="780" y="1030" as="targetPoint" />
          </mxGeometry>
        </mxCell>
        <mxCell id="xkhYk-mLTDHi5yK7-aAF-60" value="" style="rhombus;whiteSpace=wrap;html=1;" vertex="1" parent="1">
          <mxGeometry x="690" y="760" width="40" height="40" as="geometry" />
        </mxCell>
        <mxCell id="xkhYk-mLTDHi5yK7-aAF-90" style="edgeStyle=orthogonalEdgeStyle;rounded=0;orthogonalLoop=1;jettySize=auto;html=1;exitX=0.5;exitY=1;exitDx=0;exitDy=0;entryX=0.854;entryY=-0.109;entryDx=0;entryDy=0;entryPerimeter=0;" edge="1" parent="1" source="xkhYk-mLTDHi5yK7-aAF-61" target="xkhYk-mLTDHi5yK7-aAF-78">
          <mxGeometry relative="1" as="geometry" />
        </mxCell>
        <mxCell id="xkhYk-mLTDHi5yK7-aAF-61" value="Rate Doctor" style="ellipse;whiteSpace=wrap;html=1;strokeColor=default;align=center;verticalAlign=middle;fontFamily=Helvetica;fontSize=12;fontColor=default;fillColor=default;" vertex="1" parent="1">
          <mxGeometry x="1070" y="930" width="100" height="60" as="geometry" />
        </mxCell>
        <mxCell id="xkhYk-mLTDHi5yK7-aAF-73" style="edgeStyle=orthogonalEdgeStyle;rounded=0;orthogonalLoop=1;jettySize=auto;html=1;exitX=1;exitY=0.5;exitDx=0;exitDy=0;entryX=0;entryY=0.5;entryDx=0;entryDy=0;" edge="1" parent="1" source="xkhYk-mLTDHi5yK7-aAF-62" target="xkhYk-mLTDHi5yK7-aAF-61">
          <mxGeometry relative="1" as="geometry" />
        </mxCell>
        <mxCell id="xkhYk-mLTDHi5yK7-aAF-79" style="edgeStyle=orthogonalEdgeStyle;rounded=0;orthogonalLoop=1;jettySize=auto;html=1;exitX=0.5;exitY=1;exitDx=0;exitDy=0;entryX=0.687;entryY=-0.004;entryDx=0;entryDy=0;entryPerimeter=0;" edge="1" parent="1" source="xkhYk-mLTDHi5yK7-aAF-62" target="xkhYk-mLTDHi5yK7-aAF-78">
          <mxGeometry relative="1" as="geometry">
            <mxPoint x="1100" y="1050" as="targetPoint" />
          </mxGeometry>
        </mxCell>
        <mxCell id="xkhYk-mLTDHi5yK7-aAF-62" value="" style="rhombus;whiteSpace=wrap;html=1;" vertex="1" parent="1">
          <mxGeometry x="1000" y="940" width="40" height="40" as="geometry" />
        </mxCell>
        <mxCell id="xkhYk-mLTDHi5yK7-aAF-67" style="edgeStyle=orthogonalEdgeStyle;rounded=0;orthogonalLoop=1;jettySize=auto;html=1;exitX=0;exitY=0.5;exitDx=0;exitDy=0;entryX=0.5;entryY=0;entryDx=0;entryDy=0;" edge="1" parent="1" source="xkhYk-mLTDHi5yK7-aAF-63" target="xkhYk-mLTDHi5yK7-aAF-53">
          <mxGeometry relative="1" as="geometry" />
        </mxCell>
        <mxCell id="xkhYk-mLTDHi5yK7-aAF-68" style="edgeStyle=orthogonalEdgeStyle;rounded=0;orthogonalLoop=1;jettySize=auto;html=1;exitX=1;exitY=0.5;exitDx=0;exitDy=0;entryX=0.5;entryY=0;entryDx=0;entryDy=0;" edge="1" parent="1" source="xkhYk-mLTDHi5yK7-aAF-63" target="xkhYk-mLTDHi5yK7-aAF-87">
          <mxGeometry relative="1" as="geometry">
            <mxPoint x="1100" y="650" as="targetPoint" />
          </mxGeometry>
        </mxCell>
        <mxCell id="xkhYk-mLTDHi5yK7-aAF-69" style="edgeStyle=orthogonalEdgeStyle;rounded=0;orthogonalLoop=1;jettySize=auto;html=1;exitX=0.5;exitY=1;exitDx=0;exitDy=0;entryX=0.5;entryY=0;entryDx=0;entryDy=0;" edge="1" parent="1" source="xkhYk-mLTDHi5yK7-aAF-63" target="xkhYk-mLTDHi5yK7-aAF-54">
          <mxGeometry relative="1" as="geometry" />
        </mxCell>
        <mxCell id="xkhYk-mLTDHi5yK7-aAF-63" value="" style="rhombus;whiteSpace=wrap;html=1;" vertex="1" parent="1">
          <mxGeometry x="920" y="560" width="40" height="40" as="geometry" />
        </mxCell>
        <mxCell id="xkhYk-mLTDHi5yK7-aAF-83" style="edgeStyle=orthogonalEdgeStyle;rounded=0;orthogonalLoop=1;jettySize=auto;html=1;exitX=0;exitY=0.5;exitDx=0;exitDy=0;entryX=0.5;entryY=0;entryDx=0;entryDy=0;" edge="1" parent="1" source="xkhYk-mLTDHi5yK7-aAF-64" target="xkhYk-mLTDHi5yK7-aAF-91">
          <mxGeometry relative="1" as="geometry">
            <mxPoint x="940" y="1130" as="sourcePoint" />
            <mxPoint x="670" y="1260" as="targetPoint" />
          </mxGeometry>
        </mxCell>
        <mxCell id="xkhYk-mLTDHi5yK7-aAF-65" value="" style="endArrow=classic;html=1;rounded=0;exitX=0.5;exitY=1;exitDx=0;exitDy=0;entryX=0.5;entryY=0;entryDx=0;entryDy=0;" edge="1" parent="1" source="xkhYk-mLTDHi5yK7-aAF-51" target="xkhYk-mLTDHi5yK7-aAF-63">
          <mxGeometry width="50" height="50" relative="1" as="geometry">
            <mxPoint x="780" y="700" as="sourcePoint" />
            <mxPoint x="830" y="650" as="targetPoint" />
          </mxGeometry>
        </mxCell>
        <mxCell id="xkhYk-mLTDHi5yK7-aAF-82" style="edgeStyle=orthogonalEdgeStyle;rounded=0;orthogonalLoop=1;jettySize=auto;html=1;exitX=0.5;exitY=1;exitDx=0;exitDy=0;entryX=0.5;entryY=0;entryDx=0;entryDy=0;" edge="1" parent="1" source="xkhYk-mLTDHi5yK7-aAF-78" target="xkhYk-mLTDHi5yK7-aAF-64">
          <mxGeometry relative="1" as="geometry" />
        </mxCell>
        <mxCell id="xkhYk-mLTDHi5yK7-aAF-78" value="" style="rounded=0;whiteSpace=wrap;html=1;" vertex="1" parent="1">
          <mxGeometry x="600" y="1060" width="610" height="20" as="geometry" />
        </mxCell>
        <mxCell id="xkhYk-mLTDHi5yK7-aAF-81" style="edgeStyle=orthogonalEdgeStyle;rounded=0;orthogonalLoop=1;jettySize=auto;html=1;exitX=0.5;exitY=1;exitDx=0;exitDy=0;" edge="1" parent="1" source="xkhYk-mLTDHi5yK7-aAF-58">
          <mxGeometry relative="1" as="geometry">
            <mxPoint x="870" y="1060" as="targetPoint" />
          </mxGeometry>
        </mxCell>
        <mxCell id="xkhYk-mLTDHi5yK7-aAF-85" value="" style="endArrow=classic;startArrow=classic;html=1;rounded=0;exitX=1;exitY=0.5;exitDx=0;exitDy=0;entryX=1;entryY=0.5;entryDx=0;entryDy=0;" edge="1" parent="1" source="xkhYk-mLTDHi5yK7-aAF-64" target="xkhYk-mLTDHi5yK7-aAF-51">
          <mxGeometry width="50" height="50" relative="1" as="geometry">
            <mxPoint x="700" y="810" as="sourcePoint" />
            <mxPoint x="750" y="760" as="targetPoint" />
            <Array as="points">
              <mxPoint x="1280" y="1130" />
              <mxPoint x="1280" y="490" />
            </Array>
          </mxGeometry>
        </mxCell>
        <mxCell id="xkhYk-mLTDHi5yK7-aAF-88" style="edgeStyle=orthogonalEdgeStyle;rounded=0;orthogonalLoop=1;jettySize=auto;html=1;exitX=0.5;exitY=1;exitDx=0;exitDy=0;entryX=0.5;entryY=0;entryDx=0;entryDy=0;" edge="1" parent="1" source="xkhYk-mLTDHi5yK7-aAF-87" target="xkhYk-mLTDHi5yK7-aAF-52">
          <mxGeometry relative="1" as="geometry" />
        </mxCell>
        <mxCell id="xkhYk-mLTDHi5yK7-aAF-87" value="View Profile" style="ellipse;whiteSpace=wrap;html=1;strokeColor=default;align=center;verticalAlign=middle;fontFamily=Helvetica;fontSize=12;fontColor=default;fillColor=default;" vertex="1" parent="1">
          <mxGeometry x="970" y="650" width="100" height="60" as="geometry" />
        </mxCell>
        <mxCell id="xkhYk-mLTDHi5yK7-aAF-89" style="edgeStyle=orthogonalEdgeStyle;rounded=0;orthogonalLoop=1;jettySize=auto;html=1;exitX=0.5;exitY=1;exitDx=0;exitDy=0;entryX=0;entryY=0;entryDx=0;entryDy=0;" edge="1" parent="1" source="xkhYk-mLTDHi5yK7-aAF-59" target="xkhYk-mLTDHi5yK7-aAF-78">
          <mxGeometry relative="1" as="geometry" />
        </mxCell>
        <mxCell id="xkhYk-mLTDHi5yK7-aAF-92" style="edgeStyle=orthogonalEdgeStyle;rounded=0;orthogonalLoop=1;jettySize=auto;html=1;exitX=0.5;exitY=1;exitDx=0;exitDy=0;entryX=0.5;entryY=0;entryDx=0;entryDy=0;" edge="1" parent="1" source="xkhYk-mLTDHi5yK7-aAF-91" target="xkhYk-mLTDHi5yK7-aAF-44">
          <mxGeometry relative="1" as="geometry" />
        </mxCell>
        <mxCell id="xkhYk-mLTDHi5yK7-aAF-91" value="User Logoff" style="ellipse;whiteSpace=wrap;html=1;strokeColor=default;align=center;verticalAlign=middle;fontFamily=Helvetica;fontSize=12;fontColor=default;fillColor=default;" vertex="1" parent="1">
          <mxGeometry x="550" y="1250" width="100" height="60" as="geometry" />
        </mxCell>
        <mxCell id="xkhYk-mLTDHi5yK7-aAF-97" style="edgeStyle=orthogonalEdgeStyle;rounded=0;orthogonalLoop=1;jettySize=auto;html=1;exitX=0.5;exitY=1;exitDx=0;exitDy=0;entryX=1;entryY=0;entryDx=0;entryDy=0;" edge="1" parent="1" source="xkhYk-mLTDHi5yK7-aAF-94" target="xkhYk-mLTDHi5yK7-aAF-78">
          <mxGeometry relative="1" as="geometry" />
        </mxCell>
        <mxCell id="xkhYk-mLTDHi5yK7-aAF-94" value="View Diagnosis" style="ellipse;whiteSpace=wrap;html=1;strokeColor=default;align=center;verticalAlign=middle;fontFamily=Helvetica;fontSize=12;fontColor=default;fillColor=default;" vertex="1" parent="1">
          <mxGeometry x="1160" y="850" width="100" height="60" as="geometry" />
        </mxCell>
        <mxCell id="xkhYk-mLTDHi5yK7-aAF-95" style="edgeStyle=orthogonalEdgeStyle;rounded=0;orthogonalLoop=1;jettySize=auto;html=1;exitX=1;exitY=0.5;exitDx=0;exitDy=0;entryX=0;entryY=0.5;entryDx=0;entryDy=0;" edge="1" parent="1" source="xkhYk-mLTDHi5yK7-aAF-96" target="xkhYk-mLTDHi5yK7-aAF-94">
          <mxGeometry relative="1" as="geometry" />
        </mxCell>
        <mxCell id="xkhYk-mLTDHi5yK7-aAF-98" style="edgeStyle=orthogonalEdgeStyle;rounded=0;orthogonalLoop=1;jettySize=auto;html=1;exitX=0.5;exitY=1;exitDx=0;exitDy=0;entryX=0.5;entryY=0;entryDx=0;entryDy=0;" edge="1" parent="1" source="xkhYk-mLTDHi5yK7-aAF-96" target="xkhYk-mLTDHi5yK7-aAF-62">
          <mxGeometry relative="1" as="geometry" />
        </mxCell>
        <mxCell id="xkhYk-mLTDHi5yK7-aAF-96" value="" style="rhombus;whiteSpace=wrap;html=1;" vertex="1" parent="1">
          <mxGeometry x="1000" y="860" width="40" height="40" as="geometry" />
        </mxCell>
        <mxCell id="xkhYk-mLTDHi5yK7-aAF-99" value="" style="edgeStyle=orthogonalEdgeStyle;rounded=0;orthogonalLoop=1;jettySize=auto;html=1;exitX=0;exitY=0.5;exitDx=0;exitDy=0;entryX=0.5;entryY=0;entryDx=0;entryDy=0;" edge="1" parent="1" target="xkhYk-mLTDHi5yK7-aAF-64">
          <mxGeometry relative="1" as="geometry">
            <mxPoint x="940" y="1130" as="sourcePoint" />
            <mxPoint x="600" y="1250" as="targetPoint" />
          </mxGeometry>
        </mxCell>
        <mxCell id="xkhYk-mLTDHi5yK7-aAF-64" value="" style="rhombus;whiteSpace=wrap;html=1;" vertex="1" parent="1">
          <mxGeometry x="900" y="1110" width="40" height="40" as="geometry" />
        </mxCell>
      </root>
    </mxGraphModel>
  </diagram>
</mxfile>
